<mxfile host="app.diagrams.net" agent="Mozilla/5.0 (Macintosh; Intel Mac OS X 10_15_7) AppleWebKit/537.36 (KHTML, like Gecko) Chrome/140.0.0.0 Safari/537.36" version="28.2.3">
  <diagram name="Page-1" id="v4o_Z4yz8l2BY4szGyzw">
    <mxGraphModel dx="1697" dy="1155" grid="1" gridSize="10" guides="1" tooltips="1" connect="1" arrows="1" fold="1" page="1" pageScale="1" pageWidth="850" pageHeight="1100" math="0" shadow="0">
      <root>
        <mxCell id="0" />
        <mxCell id="1" parent="0" />
        <mxCell id="NL_-xaXaMdUzkcIyPBGp-1" value="" style="edgeStyle=orthogonalEdgeStyle;html=1;endArrow=openThin;elbow=vertical;startArrow=openThin;startFill=0;endFill=0;strokeColor=#545B64;rounded=0;" parent="1" target="NL_-xaXaMdUzkcIyPBGp-2" edge="1">
          <mxGeometry width="100" relative="1" as="geometry">
            <mxPoint x="260" y="220" as="sourcePoint" />
            <mxPoint x="480" y="360" as="targetPoint" />
          </mxGeometry>
        </mxCell>
        <mxCell id="NL_-xaXaMdUzkcIyPBGp-2" value="users" style="sketch=0;outlineConnect=0;gradientColor=none;fontColor=#545B64;strokeColor=none;fillColor=#879196;dashed=0;verticalLabelPosition=bottom;verticalAlign=top;align=center;html=1;fontSize=12;fontStyle=0;aspect=fixed;shape=mxgraph.aws4.illustration_users;pointerEvents=1" parent="1" vertex="1">
          <mxGeometry x="60" y="170" width="60" height="60" as="geometry" />
        </mxCell>
        <mxCell id="x2MJrP_q8yfSXlJp4d4Q-1" value="" style="sketch=0;points=[[0,0,0],[0.25,0,0],[0.5,0,0],[0.75,0,0],[1,0,0],[0,1,0],[0.25,1,0],[0.5,1,0],[0.75,1,0],[1,1,0],[0,0.25,0],[0,0.5,0],[0,0.75,0],[1,0.25,0],[1,0.5,0],[1,0.75,0]];outlineConnect=0;fontColor=#232F3E;fillColor=#8C4FFF;strokeColor=#ffffff;dashed=0;verticalLabelPosition=bottom;verticalAlign=top;align=center;html=1;fontSize=12;fontStyle=0;aspect=fixed;shape=mxgraph.aws4.resourceIcon;resIcon=mxgraph.aws4.cloudfront;" vertex="1" parent="1">
          <mxGeometry x="510" y="180" width="78" height="78" as="geometry" />
        </mxCell>
        <mxCell id="x2MJrP_q8yfSXlJp4d4Q-2" value="" style="sketch=0;outlineConnect=0;fontColor=#232F3E;gradientColor=none;fillColor=#8C4FFF;strokeColor=none;dashed=0;verticalLabelPosition=bottom;verticalAlign=top;align=center;html=1;fontSize=12;fontStyle=0;aspect=fixed;pointerEvents=1;shape=mxgraph.aws4.route_53_resolver;" vertex="1" parent="1">
          <mxGeometry x="260" y="180" width="78" height="78" as="geometry" />
        </mxCell>
        <mxCell id="x2MJrP_q8yfSXlJp4d4Q-4" value="" style="points=[];aspect=fixed;html=1;align=center;shadow=0;dashed=0;fillColor=#FF6A00;strokeColor=none;shape=mxgraph.alibaba_cloud.waf_web_application_firewall;" vertex="1" parent="1">
          <mxGeometry x="390.8" y="186.8" width="59.2" height="51.98" as="geometry" />
        </mxCell>
        <mxCell id="x2MJrP_q8yfSXlJp4d4Q-6" value="" style="endArrow=classic;html=1;rounded=0;entryX=0.411;entryY=0.56;entryDx=0;entryDy=0;entryPerimeter=0;" edge="1" parent="1" source="x2MJrP_q8yfSXlJp4d4Q-2" target="x2MJrP_q8yfSXlJp4d4Q-4">
          <mxGeometry width="50" height="50" relative="1" as="geometry">
            <mxPoint x="338" y="220" as="sourcePoint" />
            <mxPoint x="388" y="170" as="targetPoint" />
          </mxGeometry>
        </mxCell>
        <mxCell id="x2MJrP_q8yfSXlJp4d4Q-7" value="" style="endArrow=classic;html=1;rounded=0;exitX=0.713;exitY=0.639;exitDx=0;exitDy=0;exitPerimeter=0;" edge="1" parent="1" source="x2MJrP_q8yfSXlJp4d4Q-4" target="x2MJrP_q8yfSXlJp4d4Q-1">
          <mxGeometry width="50" height="50" relative="1" as="geometry">
            <mxPoint x="400" y="380" as="sourcePoint" />
            <mxPoint x="450" y="330" as="targetPoint" />
          </mxGeometry>
        </mxCell>
        <mxCell id="x2MJrP_q8yfSXlJp4d4Q-8" value="" style="points=[];aspect=fixed;html=1;align=center;shadow=0;dashed=0;fillColor=#FF6A00;strokeColor=none;shape=mxgraph.alibaba_cloud.alb_application_load_balancer_01;" vertex="1" parent="1">
          <mxGeometry x="509.99999999999994" y="387.8" width="82.77" height="70.2" as="geometry" />
        </mxCell>
        <mxCell id="x2MJrP_q8yfSXlJp4d4Q-11" value="" style="sketch=0;points=[[0,0,0],[0.25,0,0],[0.5,0,0],[0.75,0,0],[1,0,0],[0,1,0],[0.25,1,0],[0.5,1,0],[0.75,1,0],[1,1,0],[0,0.25,0],[0,0.5,0],[0,0.75,0],[1,0.25,0],[1,0.5,0],[1,0.75,0]];outlineConnect=0;fontColor=#232F3E;fillColor=#ED7100;strokeColor=#ffffff;dashed=0;verticalLabelPosition=bottom;verticalAlign=top;align=center;html=1;fontSize=12;fontStyle=0;aspect=fixed;shape=mxgraph.aws4.resourceIcon;resIcon=mxgraph.aws4.auto_scaling2;" vertex="1" parent="1">
          <mxGeometry x="370.4" y="380" width="78" height="78" as="geometry" />
        </mxCell>
        <mxCell id="x2MJrP_q8yfSXlJp4d4Q-13" value="" style="sketch=0;points=[[0,0,0],[0.25,0,0],[0.5,0,0],[0.75,0,0],[1,0,0],[0,1,0],[0.25,1,0],[0.5,1,0],[0.75,1,0],[1,1,0],[0,0.25,0],[0,0.5,0],[0,0.75,0],[1,0.25,0],[1,0.5,0],[1,0.75,0]];outlineConnect=0;fontColor=#232F3E;fillColor=#ED7100;strokeColor=#ffffff;dashed=0;verticalLabelPosition=bottom;verticalAlign=top;align=center;html=1;fontSize=12;fontStyle=0;aspect=fixed;shape=mxgraph.aws4.resourceIcon;resIcon=mxgraph.aws4.auto_scaling2;" vertex="1" parent="1">
          <mxGeometry x="220" y="380" width="78" height="78" as="geometry" />
        </mxCell>
        <mxCell id="x2MJrP_q8yfSXlJp4d4Q-14" value="" style="sketch=0;points=[[0,0,0],[0.25,0,0],[0.5,0,0],[0.75,0,0],[1,0,0],[0,1,0],[0.25,1,0],[0.5,1,0],[0.75,1,0],[1,1,0],[0,0.25,0],[0,0.5,0],[0,0.75,0],[1,0.25,0],[1,0.5,0],[1,0.75,0]];outlineConnect=0;fontColor=#232F3E;fillColor=#C925D1;strokeColor=#ffffff;dashed=0;verticalLabelPosition=bottom;verticalAlign=top;align=center;html=1;fontSize=12;fontStyle=0;aspect=fixed;shape=mxgraph.aws4.resourceIcon;resIcon=mxgraph.aws4.database;" vertex="1" parent="1">
          <mxGeometry x="90" y="550" width="78" height="78" as="geometry" />
        </mxCell>
        <mxCell id="x2MJrP_q8yfSXlJp4d4Q-15" value="" style="sketch=0;points=[[0,0,0],[0.25,0,0],[0.5,0,0],[0.75,0,0],[1,0,0],[0,1,0],[0.25,1,0],[0.5,1,0],[0.75,1,0],[1,1,0],[0,0.25,0],[0,0.5,0],[0,0.75,0],[1,0.25,0],[1,0.5,0],[1,0.75,0]];outlineConnect=0;fontColor=#232F3E;fillColor=#C925D1;strokeColor=#ffffff;dashed=0;verticalLabelPosition=bottom;verticalAlign=top;align=center;html=1;fontSize=12;fontStyle=0;aspect=fixed;shape=mxgraph.aws4.resourceIcon;resIcon=mxgraph.aws4.elasticache;" vertex="1" parent="1">
          <mxGeometry x="210" y="550" width="78" height="78" as="geometry" />
        </mxCell>
        <mxCell id="x2MJrP_q8yfSXlJp4d4Q-16" value="" style="sketch=0;points=[[0,0,0],[0.25,0,0],[0.5,0,0],[0.75,0,0],[1,0,0],[0,1,0],[0.25,1,0],[0.5,1,0],[0.75,1,0],[1,1,0],[0,0.25,0],[0,0.5,0],[0,0.75,0],[1,0.25,0],[1,0.5,0],[1,0.75,0]];outlineConnect=0;fontColor=#232F3E;fillColor=#7AA116;strokeColor=#ffffff;dashed=0;verticalLabelPosition=bottom;verticalAlign=top;align=center;html=1;fontSize=12;fontStyle=0;aspect=fixed;shape=mxgraph.aws4.resourceIcon;resIcon=mxgraph.aws4.s3;" vertex="1" parent="1">
          <mxGeometry x="360" y="550" width="78" height="78" as="geometry" />
        </mxCell>
        <mxCell id="x2MJrP_q8yfSXlJp4d4Q-17" value="" style="sketch=0;points=[[0,0,0],[0.25,0,0],[0.5,0,0],[0.75,0,0],[1,0,0],[0,1,0],[0.25,1,0],[0.5,1,0],[0.75,1,0],[1,1,0],[0,0.25,0],[0,0.5,0],[0,0.75,0],[1,0.25,0],[1,0.5,0],[1,0.75,0]];outlineConnect=0;fontColor=#232F3E;fillColor=#E7157B;strokeColor=#ffffff;dashed=0;verticalLabelPosition=bottom;verticalAlign=top;align=center;html=1;fontSize=12;fontStyle=0;aspect=fixed;shape=mxgraph.aws4.resourceIcon;resIcon=mxgraph.aws4.sqs;" vertex="1" parent="1">
          <mxGeometry x="70" y="380" width="78" height="78" as="geometry" />
        </mxCell>
        <mxCell id="x2MJrP_q8yfSXlJp4d4Q-19" value="" style="endArrow=classic;html=1;rounded=0;" edge="1" parent="1" source="x2MJrP_q8yfSXlJp4d4Q-11">
          <mxGeometry width="50" height="50" relative="1" as="geometry">
            <mxPoint x="299.6893218813452" y="469" as="sourcePoint" />
            <mxPoint x="299.6893218813452" y="419" as="targetPoint" />
          </mxGeometry>
        </mxCell>
        <mxCell id="x2MJrP_q8yfSXlJp4d4Q-20" value="" style="endArrow=classic;html=1;rounded=0;" edge="1" parent="1" source="x2MJrP_q8yfSXlJp4d4Q-13">
          <mxGeometry width="50" height="50" relative="1" as="geometry">
            <mxPoint x="149.28932188134524" y="469" as="sourcePoint" />
            <mxPoint x="149.28932188134524" y="419" as="targetPoint" />
          </mxGeometry>
        </mxCell>
        <mxCell id="x2MJrP_q8yfSXlJp4d4Q-21" value="" style="endArrow=classic;html=1;rounded=0;" edge="1" parent="1" source="x2MJrP_q8yfSXlJp4d4Q-17">
          <mxGeometry width="50" height="50" relative="1" as="geometry">
            <mxPoint x="109" y="508" as="sourcePoint" />
            <mxPoint x="110" y="520" as="targetPoint" />
          </mxGeometry>
        </mxCell>
        <mxCell id="x2MJrP_q8yfSXlJp4d4Q-22" value="" style="endArrow=none;html=1;rounded=0;endFill=0;" edge="1" parent="1">
          <mxGeometry width="50" height="50" relative="1" as="geometry">
            <mxPoint x="80" y="520" as="sourcePoint" />
            <mxPoint x="440" y="520" as="targetPoint" />
          </mxGeometry>
        </mxCell>
        <mxCell id="x2MJrP_q8yfSXlJp4d4Q-29" value="" style="endArrow=classic;html=1;rounded=0;" edge="1" parent="1" target="x2MJrP_q8yfSXlJp4d4Q-14">
          <mxGeometry width="50" height="50" relative="1" as="geometry">
            <mxPoint x="129" y="520" as="sourcePoint" />
            <mxPoint x="200" y="470" as="targetPoint" />
          </mxGeometry>
        </mxCell>
        <mxCell id="x2MJrP_q8yfSXlJp4d4Q-31" value="" style="endArrow=classic;html=1;rounded=0;" edge="1" parent="1" target="x2MJrP_q8yfSXlJp4d4Q-15">
          <mxGeometry width="50" height="50" relative="1" as="geometry">
            <mxPoint x="249" y="520" as="sourcePoint" />
            <mxPoint x="270" y="490" as="targetPoint" />
          </mxGeometry>
        </mxCell>
        <mxCell id="x2MJrP_q8yfSXlJp4d4Q-33" value="" style="endArrow=classic;html=1;rounded=0;" edge="1" parent="1" target="x2MJrP_q8yfSXlJp4d4Q-16">
          <mxGeometry width="50" height="50" relative="1" as="geometry">
            <mxPoint x="400" y="520" as="sourcePoint" />
            <mxPoint x="430" y="480" as="targetPoint" />
          </mxGeometry>
        </mxCell>
        <mxCell id="x2MJrP_q8yfSXlJp4d4Q-34" value="route53 DNS" style="text;strokeColor=none;align=center;fillColor=none;html=1;verticalAlign=middle;whiteSpace=wrap;rounded=0;" vertex="1" parent="1">
          <mxGeometry x="269" y="258" width="60" height="30" as="geometry" />
        </mxCell>
        <mxCell id="x2MJrP_q8yfSXlJp4d4Q-35" value="WAF" style="text;strokeColor=none;align=center;fillColor=none;html=1;verticalAlign=middle;whiteSpace=wrap;rounded=0;" vertex="1" parent="1">
          <mxGeometry x="395" y="238.78" width="60" height="30" as="geometry" />
        </mxCell>
        <mxCell id="x2MJrP_q8yfSXlJp4d4Q-36" value="Cloud Front" style="text;strokeColor=none;align=center;fillColor=none;html=1;verticalAlign=middle;whiteSpace=wrap;rounded=0;" vertex="1" parent="1">
          <mxGeometry x="600" y="200" width="60" height="30" as="geometry" />
        </mxCell>
        <mxCell id="x2MJrP_q8yfSXlJp4d4Q-37" value="" style="endArrow=classic;html=1;rounded=0;exitX=0.5;exitY=1;exitDx=0;exitDy=0;exitPerimeter=0;entryX=0.544;entryY=0.017;entryDx=0;entryDy=0;entryPerimeter=0;" edge="1" parent="1" source="x2MJrP_q8yfSXlJp4d4Q-1" target="x2MJrP_q8yfSXlJp4d4Q-8">
          <mxGeometry width="50" height="50" relative="1" as="geometry">
            <mxPoint x="400" y="380" as="sourcePoint" />
            <mxPoint x="450" y="330" as="targetPoint" />
          </mxGeometry>
        </mxCell>
        <mxCell id="x2MJrP_q8yfSXlJp4d4Q-38" value="" style="endArrow=classic;html=1;rounded=0;exitX=0.556;exitY=0.487;exitDx=0;exitDy=0;exitPerimeter=0;" edge="1" parent="1" source="x2MJrP_q8yfSXlJp4d4Q-8" target="x2MJrP_q8yfSXlJp4d4Q-11">
          <mxGeometry width="50" height="50" relative="1" as="geometry">
            <mxPoint x="400" y="380" as="sourcePoint" />
            <mxPoint x="450" y="330" as="targetPoint" />
          </mxGeometry>
        </mxCell>
        <mxCell id="x2MJrP_q8yfSXlJp4d4Q-39" value="ALB" style="text;strokeColor=none;align=center;fillColor=none;html=1;verticalAlign=middle;whiteSpace=wrap;rounded=0;" vertex="1" parent="1">
          <mxGeometry x="592.77" y="404" width="60" height="30" as="geometry" />
        </mxCell>
        <mxCell id="x2MJrP_q8yfSXlJp4d4Q-40" value="EC2 auto scaling WEB Sever" style="text;strokeColor=none;align=center;fillColor=none;html=1;verticalAlign=middle;whiteSpace=wrap;rounded=0;" vertex="1" parent="1">
          <mxGeometry x="379.4" y="470" width="60" height="30" as="geometry" />
        </mxCell>
        <mxCell id="x2MJrP_q8yfSXlJp4d4Q-41" value="EC2&amp;nbsp; auto scailing APP sever" style="text;strokeColor=none;align=center;fillColor=none;html=1;verticalAlign=middle;whiteSpace=wrap;rounded=0;" vertex="1" parent="1">
          <mxGeometry x="229" y="470" width="60" height="30" as="geometry" />
        </mxCell>
        <mxCell id="x2MJrP_q8yfSXlJp4d4Q-42" value="SQS" style="text;strokeColor=none;align=center;fillColor=none;html=1;verticalAlign=middle;whiteSpace=wrap;rounded=0;" vertex="1" parent="1">
          <mxGeometry x="20" y="407.9" width="60" height="30" as="geometry" />
        </mxCell>
        <mxCell id="x2MJrP_q8yfSXlJp4d4Q-43" value="Database" style="text;strokeColor=none;align=center;fillColor=none;html=1;verticalAlign=middle;whiteSpace=wrap;rounded=0;" vertex="1" parent="1">
          <mxGeometry x="99" y="628" width="60" height="30" as="geometry" />
        </mxCell>
        <mxCell id="x2MJrP_q8yfSXlJp4d4Q-44" value="Elasticahce" style="text;strokeColor=none;align=center;fillColor=none;html=1;verticalAlign=middle;whiteSpace=wrap;rounded=0;" vertex="1" parent="1">
          <mxGeometry x="219" y="628" width="60" height="30" as="geometry" />
        </mxCell>
        <mxCell id="x2MJrP_q8yfSXlJp4d4Q-45" value="S3" style="text;strokeColor=none;align=center;fillColor=none;html=1;verticalAlign=middle;whiteSpace=wrap;rounded=0;" vertex="1" parent="1">
          <mxGeometry x="370.4" y="630" width="60" height="30" as="geometry" />
        </mxCell>
      </root>
    </mxGraphModel>
  </diagram>
</mxfile>
